<svg width="76" height="37" viewBox="0 0 76 37" fill="none" xmlns="http://www.w3.org/2000/svg">
<path d="M75.0821 11.0388C75.6558 10.4412 75.6364 9.49163 75.0388 8.91792C74.4412 8.34421 73.4916 8.36359 72.9179 8.9612L75.0821 11.0388ZM3.08208 8.9612C2.50837 8.36359 1.55882 8.34421 0.961202 8.91792C0.363585 9.49163 0.344207 10.4412 0.917919 11.0388L3.08208 8.9612ZM38 28.5C60.8074 28.5 74.1875 11.9706 75.0821 11.0388L72.9179 8.9612C71.8925 10.0294 59.3526 25.5 38 25.5V28.5ZM0.917919 11.0388C0.917096 11.0379 0.950746 11.0774 1.11354 11.2629C1.24839 11.4165 1.43527 11.6274 1.67236 11.8866C2.14643 12.4047 2.81844 13.1126 3.67982 13.9455C5.40134 15.6101 7.88313 17.7776 11.0586 19.9293C17.4056 24.2299 26.5749 28.5 38 28.5V25.5C16.6503 25.5 3.63278 9.53485 3.08208 8.9612L0.917919 11.0388Z" fill="white"/>
</svg>
