<svg width="78" height="40" viewBox="0 0 78 40" fill="none" xmlns="http://www.w3.org/2000/svg">
<path d="M76.5 21.5C76.5 21 62 2 39 2C16 2 1.5 21 1.5 21.5C1.5 22 16 38.5 39 38.5C62 38.5 76.5 22 76.5 21.5Z" stroke="white" stroke-width="3"/>
<path fill-rule="evenodd" clip-rule="evenodd" d="M39.5 39C49.7173 39 58 30.7173 58 20.5C58 10.2827 49.7173 2 39.5 2C29.2827 2 21 10.2827 21 20.5C21 30.7173 29.2827 39 39.5 39ZM39 28C43.4183 28 47 24.4183 47 20C47 15.5817 43.4183 12 39 12C34.5817 12 31 15.5817 31 20C31 24.4183 34.5817 28 39 28Z" fill="white"/>
</svg>
