<svg width="27" height="31" viewBox="0 0 27 31" fill="none" xmlns="http://www.w3.org/2000/svg">
<path fill-rule="evenodd" clip-rule="evenodd" d="M14.6579 23.3158C21.0964 23.3158 26.3158 18.0964 26.3158 11.6579C26.3158 5.21942 21.0964 0 14.6579 0C8.21942 0 3 5.21942 3 11.6579C3 18.0964 8.21942 23.3158 14.6579 23.3158ZM14.6578 19.985C19.2567 19.985 22.9849 16.2568 22.9849 11.6579C22.9849 7.05898 19.2567 3.33083 14.6578 3.33083C10.0589 3.33083 6.33074 7.05898 6.33074 11.6579C6.33074 16.2568 10.0589 19.985 14.6578 19.985Z" fill="white"/>
<rect x="6.93506" y="18" width="4.70791" height="11.9105" transform="rotate(35.6097 6.93506 18)" fill="white"/>
</svg>
